#N canvas 610 32 630 608 12;
#X obj 90 5 bng 15 250 50 0 empty empty empty 17 7 0 10 -262144 -1
-1;
#X text 103 20 number of steps;
#X obj 92 275 osc~;
#X obj 92 123 random 2500 4000;
#X obj 21 194 osc~;
#X obj 95 525 *~;
#X obj 21 216 *~ 125;
#X obj 92 249 +~;
#X floatatom 20 171 5 0 0 0 - - -;
#X floatatom 92 169 5 0 0 0 - - -;
#X obj 20 124 random 6;
#X obj 20 147 + 6;
#X obj 91 146 + 2500;
#X obj 148 552 dac~ 1;
#X obj 95 553 dac~ 2;
#X obj 158 429 vline~;
#X msg 309 316 0.5 1000;
#X text 311 340 decay;
#X obj 382 257 del 50;
#X msg 392 316 0.2 1000;
#X obj 468 254 del 50;
#X text 392 340 sustain;
#X text 468 341 release;
#X text 248 340 attack;
#X msg 469 314 0 1000;
#X msg 252 318 1 50;
#X obj 130 361 snapshot~;
#X floatatom 136 383 5 0 0 0 - - -;
#X obj 131 334 metro 100;
#X obj 131 314 tgl 15 0 empty empty empty 17 7 0 10 -262144 -1 -1 1
1;
#X obj 308 258 del 50;
#X obj 21 95 del 2;
#X obj 396 182 / 4;
#X obj 308 291 bng 15 250 50 0 empty empty empty 17 7 0 10 -262144
-1 -1;
#X obj 394 287 bng 15 250 50 0 empty empty empty 17 7 0 10 -262144
-1 -1;
#X obj 471 286 bng 15 250 50 0 empty empty empty 17 7 0 10 -262144
-1 -1;
#X obj 396 158 + 1;
#X obj 252 258 del 50;
#X obj 252 291 bng 15 250 50 0 empty empty empty 17 7 0 10 -262144
-1 -1;
#X obj 396 133 random 180;
#X obj 450 207 * 40;
#X obj 381 217 * 30;
#X obj 318 220 * 20;
#X obj 253 219 * 10;
#X connect 0 0 31 0;
#X connect 0 0 18 0;
#X connect 0 0 30 0;
#X connect 0 0 37 0;
#X connect 0 0 20 0;
#X connect 0 0 39 0;
#X connect 2 0 5 0;
#X connect 3 0 12 0;
#X connect 4 0 6 0;
#X connect 5 0 14 0;
#X connect 5 0 13 0;
#X connect 6 0 7 1;
#X connect 7 0 2 0;
#X connect 8 0 4 0;
#X connect 9 0 7 0;
#X connect 10 0 11 0;
#X connect 11 0 8 0;
#X connect 12 0 9 0;
#X connect 15 0 5 1;
#X connect 15 0 26 0;
#X connect 16 0 15 0;
#X connect 18 0 34 0;
#X connect 19 0 15 0;
#X connect 20 0 35 0;
#X connect 24 0 15 0;
#X connect 25 0 15 0;
#X connect 26 0 27 0;
#X connect 28 0 26 0;
#X connect 29 0 28 0;
#X connect 30 0 33 0;
#X connect 31 0 3 0;
#X connect 31 0 10 0;
#X connect 32 0 40 0;
#X connect 32 0 41 0;
#X connect 32 0 42 0;
#X connect 32 0 43 0;
#X connect 33 0 16 0;
#X connect 34 0 19 0;
#X connect 35 0 24 0;
#X connect 36 0 32 0;
#X connect 37 0 38 0;
#X connect 38 0 25 0;
#X connect 39 0 36 0;
#X connect 40 0 20 1;
#X connect 41 0 18 1;
#X connect 42 0 30 1;
#X connect 43 0 37 1;
