#N canvas 610 45 514 608 12;
#X obj 41 10 bng 15 250 50 0 empty empty empty 17 7 0 10 -262144 -1
-1;
#X text 54 25 number of steps;
#X obj 69 318 osc~;
#X obj 43 128 random 2500 4000;
#X obj 297 200 osc~;
#X obj 79 467 *~;
#X obj 297 222 *~ 125;
#X obj 69 292 +~;
#X floatatom 296 177 5 0 0 0 - - -;
#X floatatom 43 174 5 0 0 0 - - -;
#X obj 296 130 random 6;
#X obj 296 153 + 6;
#X obj 42 151 + 2500;
#X obj 138 495 dac~ 1;
#X obj 79 495 dac~ 2;
#X obj 324 391 vline~;
#X msg 283 278 1 1000;
#X text 348 275 ramp up;
#X msg 305 302 0 1000;
#X text 355 303 ramp down;
#X connect 0 0 3 0;
#X connect 0 0 10 0;
#X connect 2 0 5 0;
#X connect 3 0 12 0;
#X connect 4 0 6 0;
#X connect 5 0 14 0;
#X connect 5 0 13 0;
#X connect 6 0 7 1;
#X connect 7 0 2 0;
#X connect 8 0 4 0;
#X connect 9 0 7 0;
#X connect 10 0 11 0;
#X connect 11 0 8 0;
#X connect 12 0 9 0;
#X connect 15 0 5 1;
#X connect 16 0 15 0;
#X connect 18 0 15 0;
